<mxfile host="app.diagrams.net" modified="2024-04-27T07:44:33.791Z" agent="Mozilla/5.0 (Windows NT 10.0; Win64; x64) AppleWebKit/537.36 (KHTML, like Gecko) Chrome/123.0.0.0 Safari/537.36" etag="ddD_mvSG48hWm0IUeopg" version="24.2.2" type="github">
  <diagram name="第 1 页" id="9mEF9So6AAIxKTvXvUER">
    <mxGraphModel dx="1136" dy="579" grid="1" gridSize="10" guides="1" tooltips="1" connect="1" arrows="1" fold="1" page="1" pageScale="1" pageWidth="827" pageHeight="1169" math="0" shadow="0">
      <root>
        <mxCell id="0" />
        <mxCell id="1" parent="0" />
        <mxCell id="kLoKrJ7U3oXqVgfcMBU9-14" style="edgeStyle=orthogonalEdgeStyle;rounded=0;orthogonalLoop=1;jettySize=auto;html=1;entryX=0.5;entryY=0;entryDx=0;entryDy=0;fontSize=14;" parent="1" source="kLoKrJ7U3oXqVgfcMBU9-1" target="kLoKrJ7U3oXqVgfcMBU9-3" edge="1">
          <mxGeometry relative="1" as="geometry" />
        </mxCell>
        <mxCell id="kLoKrJ7U3oXqVgfcMBU9-15" style="edgeStyle=orthogonalEdgeStyle;rounded=0;orthogonalLoop=1;jettySize=auto;html=1;fontSize=14;" parent="1" source="kLoKrJ7U3oXqVgfcMBU9-1" target="kLoKrJ7U3oXqVgfcMBU9-4" edge="1">
          <mxGeometry relative="1" as="geometry" />
        </mxCell>
        <mxCell id="kLoKrJ7U3oXqVgfcMBU9-1" value="接入用户信任度量" style="rounded=0;whiteSpace=wrap;html=1;fillColor=#fff2cc;strokeColor=#d6b656;fontSize=14;" parent="1" vertex="1">
          <mxGeometry x="324" y="300" width="180" height="30" as="geometry" />
        </mxCell>
        <mxCell id="kLoKrJ7U3oXqVgfcMBU9-16" style="edgeStyle=orthogonalEdgeStyle;rounded=0;orthogonalLoop=1;jettySize=auto;html=1;fontSize=14;" parent="1" source="kLoKrJ7U3oXqVgfcMBU9-3" target="kLoKrJ7U3oXqVgfcMBU9-6" edge="1">
          <mxGeometry relative="1" as="geometry" />
        </mxCell>
        <mxCell id="kLoKrJ7U3oXqVgfcMBU9-17" style="edgeStyle=orthogonalEdgeStyle;rounded=0;orthogonalLoop=1;jettySize=auto;html=1;entryX=0;entryY=0.5;entryDx=0;entryDy=0;fontSize=14;" parent="1" source="kLoKrJ7U3oXqVgfcMBU9-3" target="kLoKrJ7U3oXqVgfcMBU9-5" edge="1">
          <mxGeometry relative="1" as="geometry" />
        </mxCell>
        <mxCell id="kLoKrJ7U3oXqVgfcMBU9-18" style="edgeStyle=orthogonalEdgeStyle;rounded=0;orthogonalLoop=1;jettySize=auto;html=1;fontSize=14;" parent="1" source="kLoKrJ7U3oXqVgfcMBU9-3" target="kLoKrJ7U3oXqVgfcMBU9-7" edge="1">
          <mxGeometry relative="1" as="geometry" />
        </mxCell>
        <mxCell id="kLoKrJ7U3oXqVgfcMBU9-3" value="终端环境可信" style="rounded=0;whiteSpace=wrap;html=1;fillColor=#dae8fc;strokeColor=#6c8ebf;fontSize=14;" parent="1" vertex="1">
          <mxGeometry x="240" y="370" width="140" height="30" as="geometry" />
        </mxCell>
        <mxCell id="kLoKrJ7U3oXqVgfcMBU9-19" style="edgeStyle=orthogonalEdgeStyle;rounded=0;orthogonalLoop=1;jettySize=auto;html=1;entryX=0;entryY=0.5;entryDx=0;entryDy=0;fontSize=14;" parent="1" source="kLoKrJ7U3oXqVgfcMBU9-4" target="kLoKrJ7U3oXqVgfcMBU9-8" edge="1">
          <mxGeometry relative="1" as="geometry" />
        </mxCell>
        <mxCell id="kLoKrJ7U3oXqVgfcMBU9-20" style="edgeStyle=orthogonalEdgeStyle;rounded=0;orthogonalLoop=1;jettySize=auto;html=1;fontSize=14;" parent="1" source="kLoKrJ7U3oXqVgfcMBU9-4" target="kLoKrJ7U3oXqVgfcMBU9-9" edge="1">
          <mxGeometry relative="1" as="geometry" />
        </mxCell>
        <mxCell id="kLoKrJ7U3oXqVgfcMBU9-21" style="edgeStyle=orthogonalEdgeStyle;rounded=0;orthogonalLoop=1;jettySize=auto;html=1;entryX=0;entryY=0.5;entryDx=0;entryDy=0;fontSize=14;" parent="1" source="kLoKrJ7U3oXqVgfcMBU9-4" target="kLoKrJ7U3oXqVgfcMBU9-10" edge="1">
          <mxGeometry relative="1" as="geometry" />
        </mxCell>
        <mxCell id="kLoKrJ7U3oXqVgfcMBU9-4" value="用户行为可信" style="rounded=0;whiteSpace=wrap;html=1;fillColor=#dae8fc;strokeColor=#6c8ebf;fontSize=14;" parent="1" vertex="1">
          <mxGeometry x="450" y="370" width="140" height="30" as="geometry" />
        </mxCell>
        <mxCell id="kLoKrJ7U3oXqVgfcMBU9-5" value="&lt;div style=&quot;font-size: 14px;&quot;&gt;基&lt;/div&gt;&lt;div style=&quot;font-size: 14px;&quot;&gt;线&lt;/div&gt;&lt;div style=&quot;font-size: 14px;&quot;&gt;层&lt;/div&gt;&lt;div style=&quot;font-size: 14px;&quot;&gt;次&lt;/div&gt;&lt;div style=&quot;font-size: 14px;&quot;&gt;结&lt;/div&gt;&lt;div style=&quot;font-size: 14px;&quot;&gt;构&lt;/div&gt;&lt;div style=&quot;font-size: 14px;&quot;&gt;设&lt;/div&gt;&lt;div style=&quot;font-size: 14px;&quot;&gt;计&lt;/div&gt;" style="rounded=0;whiteSpace=wrap;html=1;direction=south;fillColor=#e1d5e7;strokeColor=#9673a6;fontSize=14;" parent="1" vertex="1">
          <mxGeometry x="295" y="445" width="30" height="140" as="geometry" />
        </mxCell>
        <mxCell id="kLoKrJ7U3oXqVgfcMBU9-6" value="&lt;div style=&quot;font-size: 14px;&quot;&gt;信&lt;/div&gt;&lt;div style=&quot;font-size: 14px;&quot;&gt;任&lt;/div&gt;&lt;div style=&quot;font-size: 14px;&quot;&gt;评&lt;/div&gt;&lt;div style=&quot;font-size: 14px;&quot;&gt;估&lt;/div&gt;&lt;div style=&quot;font-size: 14px;&quot;&gt;模&lt;/div&gt;&lt;div style=&quot;font-size: 14px;&quot;&gt;型&lt;/div&gt;&lt;div style=&quot;font-size: 14px;&quot;&gt;设&lt;/div&gt;&lt;div style=&quot;font-size: 14px;&quot;&gt;计&lt;/div&gt;" style="rounded=0;whiteSpace=wrap;html=1;direction=south;fillColor=#e1d5e7;strokeColor=#9673a6;fontSize=14;" parent="1" vertex="1">
          <mxGeometry x="240" y="445" width="30" height="140" as="geometry" />
        </mxCell>
        <mxCell id="kLoKrJ7U3oXqVgfcMBU9-7" value="基&lt;div style=&quot;font-size: 14px;&quot;&gt;线&lt;/div&gt;&lt;div style=&quot;font-size: 14px;&quot;&gt;可&lt;/div&gt;&lt;div style=&quot;font-size: 14px;&quot;&gt;信&lt;/div&gt;&lt;div style=&quot;font-size: 14px;&quot;&gt;度&lt;/div&gt;&lt;div style=&quot;font-size: 14px;&quot;&gt;计&lt;/div&gt;&lt;div style=&quot;font-size: 14px;&quot;&gt;算&lt;/div&gt;" style="rounded=0;whiteSpace=wrap;html=1;direction=south;fillColor=#e1d5e7;strokeColor=#9673a6;fontSize=14;" parent="1" vertex="1">
          <mxGeometry x="350" y="445" width="30" height="140" as="geometry" />
        </mxCell>
        <mxCell id="kLoKrJ7U3oXqVgfcMBU9-8" value="行&lt;div style=&quot;font-size: 14px;&quot;&gt;为&lt;/div&gt;&lt;div style=&quot;font-size: 14px;&quot;&gt;特&lt;/div&gt;&lt;div style=&quot;font-size: 14px;&quot;&gt;征&lt;/div&gt;&lt;div style=&quot;font-size: 14px;&quot;&gt;分&lt;/div&gt;&lt;div style=&quot;font-size: 14px;&quot;&gt;类&lt;/div&gt;" style="rounded=0;whiteSpace=wrap;html=1;direction=south;fillColor=#e1d5e7;strokeColor=#9673a6;fontSize=14;" parent="1" vertex="1">
          <mxGeometry x="450" y="445" width="30" height="140" as="geometry" />
        </mxCell>
        <mxCell id="kLoKrJ7U3oXqVgfcMBU9-9" value="行&lt;div style=&quot;font-size: 14px;&quot;&gt;为&lt;/div&gt;&lt;div style=&quot;font-size: 14px;&quot;&gt;模&lt;/div&gt;&lt;div style=&quot;font-size: 14px;&quot;&gt;型&lt;/div&gt;&lt;div style=&quot;font-size: 14px;&quot;&gt;设&lt;/div&gt;&lt;div style=&quot;font-size: 14px;&quot;&gt;计&lt;/div&gt;" style="rounded=0;whiteSpace=wrap;html=1;direction=south;fillColor=#e1d5e7;strokeColor=#9673a6;fontSize=14;" parent="1" vertex="1">
          <mxGeometry x="505" y="445" width="30" height="140" as="geometry" />
        </mxCell>
        <mxCell id="kLoKrJ7U3oXqVgfcMBU9-10" value="行&lt;div style=&quot;font-size: 14px;&quot;&gt;为&lt;/div&gt;&lt;div style=&quot;font-size: 14px;&quot;&gt;可&lt;/div&gt;&lt;div style=&quot;font-size: 14px;&quot;&gt;信&lt;/div&gt;&lt;div style=&quot;font-size: 14px;&quot;&gt;度&lt;/div&gt;&lt;div style=&quot;font-size: 14px;&quot;&gt;计&lt;/div&gt;&lt;div style=&quot;font-size: 14px;&quot;&gt;算&lt;/div&gt;" style="rounded=0;whiteSpace=wrap;html=1;direction=south;fillColor=#e1d5e7;strokeColor=#9673a6;fontSize=14;" parent="1" vertex="1">
          <mxGeometry x="560" y="445" width="30" height="140" as="geometry" />
        </mxCell>
        <mxCell id="kLoKrJ7U3oXqVgfcMBU9-41" style="edgeStyle=orthogonalEdgeStyle;rounded=0;orthogonalLoop=1;jettySize=auto;html=1;entryX=0.5;entryY=0;entryDx=0;entryDy=0;fontSize=14;" parent="1" source="kLoKrJ7U3oXqVgfcMBU9-11" target="kLoKrJ7U3oXqVgfcMBU9-12" edge="1">
          <mxGeometry relative="1" as="geometry" />
        </mxCell>
        <mxCell id="kLoKrJ7U3oXqVgfcMBU9-11" value="接入用户综合信任度量" style="rounded=0;whiteSpace=wrap;html=1;fillColor=#fff2cc;strokeColor=#d6b656;fontSize=14;" parent="1" vertex="1">
          <mxGeometry x="240" y="630" width="350" height="30" as="geometry" />
        </mxCell>
        <mxCell id="kLoKrJ7U3oXqVgfcMBU9-43" value="" style="edgeStyle=orthogonalEdgeStyle;rounded=0;orthogonalLoop=1;jettySize=auto;html=1;fontSize=14;" parent="1" source="kLoKrJ7U3oXqVgfcMBU9-12" target="kLoKrJ7U3oXqVgfcMBU9-13" edge="1">
          <mxGeometry relative="1" as="geometry" />
        </mxCell>
        <mxCell id="kLoKrJ7U3oXqVgfcMBU9-12" value="面向可信用户的零信任代理系统" style="rounded=0;whiteSpace=wrap;html=1;fillColor=#fff2cc;strokeColor=#d6b656;fontSize=14;" parent="1" vertex="1">
          <mxGeometry x="240" y="690" width="350" height="30" as="geometry" />
        </mxCell>
        <mxCell id="kLoKrJ7U3oXqVgfcMBU9-13" value="零信任代理系统应用" style="rounded=0;whiteSpace=wrap;html=1;fillColor=#fff2cc;strokeColor=#d6b656;fontSize=14;" parent="1" vertex="1">
          <mxGeometry x="240" y="760" width="350" height="30" as="geometry" />
        </mxCell>
        <mxCell id="kLoKrJ7U3oXqVgfcMBU9-27" style="edgeStyle=orthogonalEdgeStyle;rounded=0;orthogonalLoop=1;jettySize=auto;html=1;entryX=0.2;entryY=0.073;entryDx=0;entryDy=0;entryPerimeter=0;fontSize=14;" parent="1" source="kLoKrJ7U3oXqVgfcMBU9-5" target="kLoKrJ7U3oXqVgfcMBU9-11" edge="1">
          <mxGeometry relative="1" as="geometry" />
        </mxCell>
        <mxCell id="kLoKrJ7U3oXqVgfcMBU9-29" style="edgeStyle=orthogonalEdgeStyle;rounded=0;orthogonalLoop=1;jettySize=auto;html=1;entryX=0.2;entryY=0.048;entryDx=0;entryDy=0;entryPerimeter=0;fontSize=14;" parent="1" source="kLoKrJ7U3oXqVgfcMBU9-6" target="kLoKrJ7U3oXqVgfcMBU9-11" edge="1">
          <mxGeometry relative="1" as="geometry" />
        </mxCell>
        <mxCell id="kLoKrJ7U3oXqVgfcMBU9-31" style="edgeStyle=orthogonalEdgeStyle;rounded=0;orthogonalLoop=1;jettySize=auto;html=1;entryX=0.2;entryY=-0.003;entryDx=0;entryDy=0;entryPerimeter=0;fontSize=14;" parent="1" source="kLoKrJ7U3oXqVgfcMBU9-7" target="kLoKrJ7U3oXqVgfcMBU9-11" edge="1">
          <mxGeometry relative="1" as="geometry" />
        </mxCell>
        <mxCell id="kLoKrJ7U3oXqVgfcMBU9-32" style="edgeStyle=orthogonalEdgeStyle;rounded=0;orthogonalLoop=1;jettySize=auto;html=1;entryX=0.802;entryY=-0.003;entryDx=0;entryDy=0;entryPerimeter=0;fontSize=14;" parent="1" source="kLoKrJ7U3oXqVgfcMBU9-9" target="kLoKrJ7U3oXqVgfcMBU9-11" edge="1">
          <mxGeometry relative="1" as="geometry" />
        </mxCell>
        <mxCell id="kLoKrJ7U3oXqVgfcMBU9-33" style="edgeStyle=orthogonalEdgeStyle;rounded=0;orthogonalLoop=1;jettySize=auto;html=1;entryX=0.802;entryY=0.073;entryDx=0;entryDy=0;entryPerimeter=0;fontSize=14;" parent="1" source="kLoKrJ7U3oXqVgfcMBU9-8" target="kLoKrJ7U3oXqVgfcMBU9-11" edge="1">
          <mxGeometry relative="1" as="geometry" />
        </mxCell>
        <mxCell id="kLoKrJ7U3oXqVgfcMBU9-35" style="edgeStyle=orthogonalEdgeStyle;rounded=0;orthogonalLoop=1;jettySize=auto;html=1;entryX=0.798;entryY=0.048;entryDx=0;entryDy=0;entryPerimeter=0;fontSize=14;" parent="1" source="kLoKrJ7U3oXqVgfcMBU9-10" target="kLoKrJ7U3oXqVgfcMBU9-11" edge="1">
          <mxGeometry relative="1" as="geometry" />
        </mxCell>
      </root>
    </mxGraphModel>
  </diagram>
</mxfile>
